{
  "accessors": [
    {
      "bufferView": 2,
      "componentType": 5126,
      "count": 24,
      "max": [
        124.64008331298828,
        62.02149200439453,
        1616.1173095703125
      ],
      "min": [
        25.586214065551758,
        -34.709556579589844,
        1589.873779296875
      ],
      "type": "VEC3"
    },
    {
      "bufferView": 2,
      "byteOffset": 288,
      "componentType": 5126,
      "count": 24,
      "max": [
        0.9703753590583801,
        0.9865589737892151,
        0.1551460176706314
      ],
      "min": [
        -0.9992516040802002,
        -0.991935133934021,
        -0.13883797824382782
      ],
      "type": "VEC3"
    },
    {
      "bufferView": 1,
      "componentType": 5126,
      "count": 24,
      "max": [
        107.20030212402344,
        3.585326910018921
      ],
      "min": [
        -107.20027923583984,
        -3.585326910018921
      ],
      "type": "VEC2"
    },
    {
      "bufferView": 0,
      "componentType": 5125,
      "count": 66,
      "type": "SCALAR"
    },
    {
      "bufferView": 2,
      "byteOffset": 576,
      "componentType": 5126,
      "count": 9155,
      "max": [
        35.317039489746094,
        -103.03147888183594,
        1231.7083740234375
      ],
      "min": [
        -2.0320301055908203,
        -122.16724395751953,
        894.760009765625
      ],
      "type": "VEC3"
    },
    {
      "bufferView": 2,
      "byteOffset": 110436,
      "componentType": 5126,
      "count": 9155,
      "max": [
        0.9999760985374451,
        0.9996377825737,
        1.0
      ],
      "min": [
        -1.0,
        -0.9996377825737,
        -1.0
      ],
      "type": "VEC3"
    },
    {
      "bufferView": 1,
      "byteOffset": 192,
      "componentType": 5126,
      "count": 9155,
      "max": [
        0.9735000133514404,
        0.9702000021934509
      ],
      "min": [
        0.013799999840557575,
        0.016599999740719795
      ],
      "type": "VEC2"
    },
    {
      "bufferView": 0,
      "byteOffset": 264,
      "componentType": 5125,
      "count": 44610,
      "type": "SCALAR"
    },
    {
      "bufferView": 2,
      "byteOffset": 220296,
      "componentType": 5126,
      "count": 2365,
      "max": [
        303.294677734375,
        218.7860870361328,
        1550.660400390625
      ],
      "min": [
        -117.61343383789063,
        -171.99375915527344,
        1135.67578125
      ],
      "type": "VEC3"
    },
    {
      "bufferView": 2,
      "byteOffset": 248676,
      "componentType": 5126,
      "count": 2365,
      "max": [
        0.9991927742958069,
        0.9995130896568298,
        0.9998165369033813
      ],
      "min": [
        -0.9996538758277893,
        -0.9995414614677429,
        -0.9887884855270386
      ],
      "type": "VEC3"
    },
    {
      "bufferView": 1,
      "byteOffset": 73432,
      "componentType": 5126,
      "count": 2365,
      "max": [
        1.2221770286560059,
        1.883700966835022
      ],
      "min": [
        -2.213953971862793,
        -0.8799639940261841
      ],
      "type": "VEC2"
    },
    {
      "bufferView": 0,
      "byteOffset": 178704,
      "componentType": 5125,
      "count": 12726,
      "type": "SCALAR"
    },
    {
      "bufferView": 2,
      "byteOffset": 277056,
      "componentType": 5126,
      "count": 1447,
      "max": [
        251.2762451171875,
        130.5556640625,
        1277.656005859375
      ],
      "min": [
        -120.88967895507813,
        -170.9466552734375,
        877.91455078125
      ],
      "type": "VEC3"
    },
    {
      "bufferView": 2,
      "byteOffset": 294420,
      "componentType": 5126,
      "count": 1447,
      "max": [
        0.9989052414894104,
        0.9980917572975159,
        0.9920503497123718
      ],
      "min": [
        -0.9965208768844604,
        -0.9998272657394409,
        -0.7390192151069641
      ],
      "type": "VEC3"
    },
    {
      "bufferView": 1,
      "byteOffset": 92352,
      "componentType": 5126,
      "count": 1447,
      "max": [
        432.202392578125,
        215.38311767578125
      ],
      "min": [
        -432.202392578125,
        -215.38311767578125
      ],
      "type": "VEC2"
    },
    {
      "bufferView": 0,
      "byteOffset": 229608,
      "componentType": 5125,
      "count": 7950,
      "type": "SCALAR"
    }
  ],
  "asset": {
    "extras": {
      "author": "Androkumura (https://sketchfab.com/Androkumura)",
      "license": "CC-BY-NC-ND-4.0 (http://creativecommons.org/licenses/by-nc-nd/4.0/)",
      "source": "https://sketchfab.com/3d-models/casual-clothes-3d76c9f61c9140f2ab61c601af3f5e71",
      "title": "Casual Clothes"
    },
    "generator": "Sketchfab-12.68.0",
    "version": "2.0"
  },
  "bufferViews": [
    {
      "buffer": 0,
      "byteLength": 261408,
      "name": "floatBufferViews",
      "target": 34963
    },
    {
      "buffer": 0,
      "byteLength": 103928,
      "byteOffset": 261408,
      "byteStride": 8,
      "name": "floatBufferViews",
      "target": 34962
    },
    {
      "buffer": 0,
      "byteLength": 311784,
      "byteOffset": 365336,
      "byteStride": 12,
      "name": "floatBufferViews",
      "target": 34962
    }
  ],
  "buffers": [
    {
      "byteLength": 677120,
      "uri": "scene.bin"
    }
  ],
  "images": [
    {
      "uri": "textures/Tshirt_FRONT_7678_baseColor.png"
    }
  ],
  "materials": [
    {
      "doubleSided": true,
      "name": "Material7471",
      "pbrMetallicRoughness": {
        "baseColorFactor": [
          0.2,
          0.07451,
          0.011765,
          1.0
        ],
        "metallicFactor": 0.0,
        "roughnessFactor": 0.9827475502465659
      }
    },
    {
      "doubleSided": true,
      "name": "Pocket_FRONT_7674",
      "pbrMetallicRoughness": {
        "baseColorFactor": [
          0.011765,
          0.011765,
          0.011765,
          1.0
        ],
        "metallicFactor": 0.0,
        "roughnessFactor": 0.9827475502465659
      }
    },
    {
      "doubleSided": true,
      "emissiveTexture": {
        "index": 0
      },
      "name": "Tshirt_FRONT_7678",
      "pbrMetallicRoughness": {
        "baseColorTexture": {
          "index": 0
        },
        "metallicFactor": 0.0,
        "roughnessFactor": 0.9827475502465659
      }
    },
    {
      "doubleSided": true,
      "name": "Waist_Belt_FRONT_7670",
      "pbrMetallicRoughness": {
        "baseColorFactor": [
          0.22653400390734113,
          0.034740850530621405,
          0.00802704463018377,
          1.0
        ],
        "metallicFactor": 0.0,
        "roughnessFactor": 0.9827475502465659
      }
    }
  ],
  "meshes": [
    {
      "name": "Object_0",
      "primitives": [
        {
          "attributes": {
            "NORMAL": 1,
            "POSITION": 0,
            "TEXCOORD_0": 2
          },
          "indices": 3,
          "material": 1,
          "mode": 4
        }
      ]
    },
    {
      "name": "Object_1",
      "primitives": [
        {
          "attributes": {
            "NORMAL": 5,
            "POSITION": 4,
            "TEXCOORD_0": 6
          },
          "indices": 7,
          "material": 0,
          "mode": 4
        }
      ]
    },
    {
      "name": "Object_2",
      "primitives": [
        {
          "attributes": {
            "NORMAL": 9,
            "POSITION": 8,
            "TEXCOORD_0": 10
          },
          "indices": 11,
          "material": 2,
          "mode": 4
        }
      ]
    },
    {
      "name": "Object_3",
      "primitives": [
        {
          "attributes": {
            "NORMAL": 13,
            "POSITION": 12,
            "TEXCOORD_0": 14
          },
          "indices": 15,
          "material": 3,
          "mode": 4
        }
      ]
    }
  ],
  "nodes": [
    {
      "children": [
        1
      ],
      "matrix": [
        1.0,
        0.0,
        0.0,
        0.0,
        0.0,
        2.220446049250313e-16,
        -1.0,
        0.0,
        0.0,
        1.0,
        2.220446049250313e-16,
        0.0,
        0.0,
        0.0,
        0.0,
        1.0
      ],
      "name": "Sketchfab_model"
    },
    {
      "children": [
        2,
        3,
        4,
        5
      ],
      "name": "ropa casual.obj.cleaner.materialmerger.gles"
    },
    {
      "mesh": 0,
      "name": "Object_2"
    },
    {
      "mesh": 1,
      "name": "Object_3"
    },
    {
      "mesh": 2,
      "name": "Object_4"
    },
    {
      "mesh": 3,
      "name": "Object_5"
    }
  ],
  "samplers": [
    {
      "magFilter": 9729,
      "minFilter": 9987,
      "wrapS": 10497,
      "wrapT": 10497
    }
  ],
  "scene": 0,
  "scenes": [
    {
      "name": "Sketchfab_Scene",
      "nodes": [
        0
      ]
    }
  ],
  "textures": [
    {
      "sampler": 0,
      "source": 0
    }
  ]
}
